<!DOCTYPE svg PUBLIC "-//W3C//DTD SVG 1.1//EN" "http://www.w3.org/Graphics/SVG/1.1/DTD/svg11.dtd">

<!-- Uploaded to: SVG Repo, www.svgrepo.com, Transformed by: SVG Repo Mixer Tools -->
<svg fill="#345c3a" height="800px" width="800px" version="1.1" id="Layer_1" xmlns="http://www.w3.org/2000/svg" xmlns:xlink="http://www.w3.org/1999/xlink" viewBox="0 0 512.299 512.299" xml:space="preserve" stroke="#345c3a" stroke-width="7">

<g id="SVGRepo_bgCarrier" stroke-width="0"/>

<g id="SVGRepo_tracerCarrier" stroke-linecap="round" stroke-linejoin="round"/>

<g id="SVGRepo_iconCarrier"> <g transform="translate(1 1)"> <g> <g> <path d="M477.165,169.923h-25.821L274.925,13.763c-20.48-19.627-52.907-19.627-73.387,0l-65.707,59.733v-23.04h8.533 c5.12,0,8.533-3.413,8.533-8.533V7.789c0-5.12-3.413-8.533-8.533-8.533h-102.4c-5.12,0-8.533,3.413-8.533,8.533v34.133 c0,5.12,4.267,8.533,8.533,8.533h8.533v98.133L5.272,187.843c-5.973,5.973-7.68,13.653-5.12,21.333 c2.56,6.827,10.24,11.947,17.92,11.947h32.427v238.933h-8.533c-5.12,0-8.533,3.413-8.533,8.533v34.133 c0,5.12,3.413,8.533,8.533,8.533h392.533c5.12,0,8.533-3.413,8.533-8.533v-34.133c0-2.56-0.853-4.267-2.56-5.973 c-1.707-1.707-3.413-2.56-5.973-2.56h-8.533v-17.067h51.2c18.773,0,34.133-15.36,34.133-34.133V272.323v-51.2v-17.067 C511.299,185.283,495.939,169.923,477.165,169.923z M494.232,204.056v8.533h-332.8v-8.533c0-9.387,7.68-17.067,17.067-17.067 h268.8h29.867C486.552,186.989,494.232,194.669,494.232,204.056z M494.232,263.789h-332.8v-34.133h332.8V263.789z M417.432,477.123h8.533v17.067H50.499v-17.067h8.533c5.12,0,8.533-3.413,8.533-8.533v-256c0-5.12-3.413-8.533-8.533-8.533 h-40.96c-0.853,0-1.707,0-1.707-0.853s0-1.707,0.853-2.56l47.787-40.96c1.707-1.707,2.56-4.267,2.56-6.827V41.923 c0-5.12-3.413-8.533-8.533-8.533h-8.533V16.323h85.333v17.067h-8.533c-5.12,0-8.533,3.413-8.533,8.533v51.2 c0,3.413,1.707,6.827,5.12,8.533c3.413,0.853,6.827,0.853,9.387-1.707l80.213-73.387c13.653-13.653,34.987-13.653,49.493,0 l161.28,143.36h-245.76c-18.773,0-34.133,15.36-34.133,34.133v17.067v51.2v136.533c0,18.773,15.36,34.133,34.133,34.133h230.4 v25.6C408.899,473.709,412.312,477.123,417.432,477.123z M477.165,425.923h-59.733H178.499c-9.387,0-17.067-7.68-17.067-17.067 v-128h332.8v128C494.232,418.243,486.552,425.923,477.165,425.923z"/> <path d="M468.632,332.056H357.699c-5.12,0-8.533,3.413-8.533,8.533v59.733c0,5.12,3.413,8.533,8.533,8.533h110.933 c5.12,0,8.533-3.413,8.533-8.533v-59.733C477.165,335.469,473.752,332.056,468.632,332.056z M460.099,391.789h-93.867v-42.667 h93.867V391.789z"/> <path d="M187.032,323.523h42.667c5.12,0,8.533-3.413,8.533-8.533s-3.413-8.533-8.533-8.533h-42.667 c-5.12,0-8.533,3.413-8.533,8.533S181.912,323.523,187.032,323.523z"/> <path d="M314.179,306.456h-55.467c-5.12,0-8.533,3.413-8.533,8.533s3.413,8.533,8.533,8.533h55.467 c5.12,0,8.533-3.413,8.533-8.533S319.299,306.456,314.179,306.456z"/> <path d="M271.512,340.589h-84.48c-5.12,0-8.533,3.413-8.533,8.533s3.413,8.533,8.533,8.533h84.48 c4.267,0,8.533-3.413,8.533-8.533S276.632,340.589,271.512,340.589z"/> <path d="M314.179,340.589h-16.213c-5.12,0-8.533,3.413-8.533,8.533s3.413,8.533,8.533,8.533h16.213 c5.12,0,8.533-3.413,8.533-8.533S319.299,340.589,314.179,340.589z"/> </g> </g> </g> </g>

</svg>