<!DOCTYPE svg PUBLIC "-//W3C//DTD SVG 1.1//EN" "http://www.w3.org/Graphics/SVG/1.1/DTD/svg11.dtd">
<!-- Uploaded to: SVG Repo, www.svgrepo.com, Transformed by: SVG Repo Mixer Tools -->
<svg fill="#345c3a" height="800px" width="800px" version="1.1" id="Capa_1" xmlns="http://www.w3.org/2000/svg" xmlns:xlink="http://www.w3.org/1999/xlink" viewBox="0 0 491.4 491.4" xml:space="preserve" stroke="#345c3a">
<g id="SVGRepo_bgCarrier" stroke-width="0"/>
<g id="SVGRepo_tracerCarrier" stroke-linecap="round" stroke-linejoin="round"/>
<g id="SVGRepo_iconCarrier"> <g> <path d="M89.6,224.65c11.6,0,21,9.4,21,21c0,11.6-9.4,21-21,21c-11.6,0-21-9.4-21-21C68.5,234.05,77.9,224.65,89.6,224.65z M399.9,167.85v-11.3c0-19.1-15.5-34.6-34.7-34.6H34.7c-19.1,0-34.7,15.5-34.7,34.6v178.3c0,19.1,15.5,34.6,34.7,34.6H282 c-0.8-2.6-1.2-5.3-1.2-8.1v-21.5H70.3c0.4-2.1,0.6-4.2,0.6-6.5c0-19.4-15.7-35.1-35.1-35.1c-2.1,0-4.2,0.2-6.2,0.6v-106.5 c2,0.4,4.1,0.6,6.2,0.6c19.4,0,35.1-15.7,35.1-35.1c0-2.2-0.2-4.4-0.6-6.5h257.4c-0.7,2.7-1.1,5.6-1.1,8.6 c0,15.3,9.9,28.3,23.6,33.1c1.7-14.2,13.8-25.3,28.4-25.3h21.3V167.85z M345.1,246.55h-35.7c-4.5,0-8.1,3.6-8.1,8.1v106.7 c0,4.5,3.6,8.1,8.1,8.1h35.7c4.5,0,8.1-3.6,8.1-8.1v-106.7C353.2,250.15,349.6,246.55,345.1,246.55z M414.2,188.35h-35.7 c-4.5,0-8.1,3.6-8.1,8.1v164.9c0,4.5,3.6,8.1,8.1,8.1h35.7c4.5,0,8.1-3.6,8.1-8.1v-164.9C422.3,191.95,418.7,188.35,414.2,188.35z M483.3,283.65h-35.7c-4.5,0-8.1,3.6-8.1,8.1v69.6c0,4.5,3.6,8.1,8.1,8.1h35.7c4.5,0,8.1-3.6,8.1-8.1v-69.6 C491.4,287.35,487.7,283.65,483.3,283.65z M200,169.75c41.8,0,75.6,34,75.6,75.9s-33.9,75.9-75.6,75.9s-75.6-34-75.6-75.9 S158.2,169.75,200,169.75z M198.4,203.35c-6.4,1-12.4,3.2-17.6,7.3c-6.5,5.1-10.8,11.8-13.2,19.6l-0.3,0.9h-9.1 c-1.4,0-2.6,1.2-2.6,2.6v5.9c0,1.5,1.2,2.6,2.6,2.6h7.2c0,1.6,0,3.2,0,4.8h-7.2c-1.4,0-2.6,1.2-2.6,2.6v5.9c0,1.5,1.2,2.6,2.6,2.6 h8.7c0.6,2.1,1.2,4.3,2,6.4c4.4,10.6,11.7,18.2,22.8,21.8c9.2,3,18.4,2.9,27.6,0.3c2.4-0.7,4.8-1.5,7.1-2.6c2.2-1,2.8-2.7,1.9-4.8 c-1-2.4-1.9-4.7-3-7c-0.9-2.1-2.2-2.7-4.4-2.2c-2.9,0.7-5.7,1.5-8.5,2.1c-5.5,1.2-11.1,1.3-16.5-0.5c-6.8-2.2-10.5-7.1-12.7-13.6 h18.6c1.5,0,2.6-1.2,2.6-2.6v-5.9c0-1.5-1.2-2.6-2.6-2.6h-20.3c0-1.6,0-3.2,0-4.8h20.3c1.5,0,2.6-1.2,2.6-2.6v-5.9 c0-1.5-1.2-2.6-2.6-2.6H184c0-0.1,0-0.1,0-0.2c2.1-4.9,5.2-8.8,10.3-10.8c5.9-2.4,12-2.3,18.1-1c2.9,0.6,5.7,1.5,8.6,2.1 c2.1,0.5,3.3-0.2,4.3-2.1c1-2.3,2-4.6,3-6.9c0.9-2.2,0.4-3.7-1.7-5c-0.5-0.3-1.1-0.6-1.6-0.8 C216.3,203.15,207.5,201.85,198.4,203.35z"/> </g> </g>
</svg>