<svg xmlns="http://www.w3.org/2000/svg" viewBox="0 0 500 500"><g id="freepik--background-simple--inject-79"><path d="M488.62,299.51c6-89.92-39.43-176-118.15-219.86A234.28,234.28,0,0,0,324,60C198,22,151,54,118,94s-2,108-40,136S-6,298,13,357s66,98,110,94,90-56,121-22,130,67,195,10C473.74,408.54,485.34,348.66,488.62,299.51Z" style="fill:#B08B57"></path><path d="M488.62,299.51c6-89.92-39.43-176-118.15-219.86A234.28,234.28,0,0,0,324,60C198,22,151,54,118,94s-2,108-40,136S-6,298,13,357s66,98,110,94,90-56,121-22,130,67,195,10C473.74,408.54,485.34,348.66,488.62,299.51Z" style="fill:#fff;opacity:0.7000000000000001"></path></g><g id="freepik--Contract--inject-79"><path d="M392.48,278.67c5.91,1.1,12.36-2.69,16-8.78,2.77-4.57,3.74-9.08,4.87-14.25C414.62,250,458.54,45.81,459,43.79H236.56L191.28,254.2l-1.84,8.49a16.14,16.14,0,0,1-2,5l-1.34,2.23a15,15,0,0,1-26.53-1.63,23.75,23.75,0,0,0-21.31-14.06h-.83a23.79,23.79,0,0,0-22.68,18.21L96.38,348.66H318.79l16.88-70" style="fill:#fff;stroke:#263238;stroke-linecap:round;stroke-linejoin:round"></path><path d="M307,67.54l-.32,1.68h-2l.34-1.79c.33-1.68-.14-2.69-1.67-2.69s-2.38,1-2.71,2.69l-1.9,9.89c-.33,1.68.17,2.69,1.67,2.69s2.39-1,2.71-2.69l.47-2.43h2l-.44,2.32c-.55,2.83-2.25,4.7-5.13,4.7s-3.83-1.87-3.29-4.7l1.87-9.67c.54-2.83,2.24-4.7,5.1-4.7S307.5,64.71,307,67.54Z" style="fill:#263238"></path><path d="M308.69,67.54c.55-2.86,2.32-4.7,5.18-4.7s3.94,1.84,3.39,4.7l-1.86,9.67c-.55,2.83-2.32,4.7-5.21,4.7s-3.91-1.87-3.37-4.7Zm.17,9.78c-.33,1.71.2,2.69,1.7,2.69s2.4-1,2.73-2.69l1.91-9.89c.32-1.68-.18-2.69-1.7-2.69s-2.41,1-2.73,2.69Z" style="fill:#263238"></path><path d="M318.35,81.72h-1.87L320.08,63h2.65l1.72,13.51L327.06,63h1.84l-3.61,18.69h-2.16l-1.87-15.11Z" style="fill:#263238"></path><path d="M330.13,81.72l3.24-16.8h-3.45l.37-1.89h8.95l-.37,1.89h-3.44l-3.24,16.8Z" style="fill:#263238"></path><path d="M344.82,63c2.94,0,3.88,1.49,3.35,4.27l-.3,1.52c-.39,2.06-1.36,3.34-3.06,3.85,1.61.51,2,1.9,1.6,3.9l-.57,2.91a4.39,4.39,0,0,0,0,2.24h-2.12a4.73,4.73,0,0,1,.1-2.27l.56-2.93c.41-2.12-.45-2.78-2.19-2.78h-1.47l-1.54,8h-2.08L340.65,63Zm-2.23,8.81a2.75,2.75,0,0,0,3.14-2.56l.34-1.79c.33-1.69-.12-2.57-1.67-2.57h-2L341,71.84Z" style="fill:#263238"></path><path d="M350.41,78,349,81.72H347L354.23,63h3l0,18.69h-2.08V78Zm.61-1.79h4.17l0-10.79Z" style="fill:#263238"></path><path d="M369.81,67.54l-.32,1.68h-2l.35-1.79c.32-1.68-.15-2.69-1.67-2.69s-2.39,1-2.71,2.69l-1.91,9.89c-.32,1.68.17,2.69,1.67,2.69s2.39-1,2.71-2.69l.47-2.43h2L368,77.21c-.55,2.83-2.24,4.7-5.13,4.7S359,80,359.53,77.21l1.87-9.67c.54-2.83,2.24-4.7,5.1-4.7S370.36,64.71,369.81,67.54Z" style="fill:#263238"></path><path d="M371.67,81.72l3.24-16.8h-3.44l.36-1.89h8.95l-.36,1.89H377l-3.24,16.8Z" style="fill:#263238"></path><line x1="242.29" y1="90.86" x2="438.48" y2="90.86" style="fill:none;stroke:#263238;stroke-miterlimit:10"></line><line x1="386.29" y1="112.6" x2="432.2" y2="112.6" style="fill:none;stroke:#263238;stroke-miterlimit:10"></line><line x1="314.29" y1="112.6" x2="381.46" y2="112.6" style="fill:none;stroke:#263238;stroke-miterlimit:10"></line><line x1="269.35" y1="112.6" x2="310.43" y2="112.6" style="fill:none;stroke:#263238;stroke-miterlimit:10"></line><line x1="236.01" y1="112.6" x2="265.49" y2="112.6" style="fill:none;stroke:#263238;stroke-miterlimit:10"></line><line x1="380.49" y1="123.71" x2="429.78" y2="123.71" style="fill:none;stroke:#263238;stroke-miterlimit:10"></line><line x1="268.87" y1="123.71" x2="375.66" y2="123.71" style="fill:none;stroke:#263238;stroke-miterlimit:10"></line><line x1="233.6" y1="123.71" x2="264.52" y2="123.71" style="fill:none;stroke:#263238;stroke-miterlimit:10"></line><line x1="370.35" y1="134.83" x2="427.37" y2="134.83" style="fill:none;stroke:#263238;stroke-miterlimit:10"></line><line x1="284.82" y1="134.83" x2="366.48" y2="134.83" style="fill:none;stroke:#263238;stroke-miterlimit:10"></line><line x1="231.18" y1="134.83" x2="280.95" y2="134.83" style="fill:none;stroke:#263238;stroke-miterlimit:10"></line><line x1="389.19" y1="145.94" x2="424.95" y2="145.94" style="fill:none;stroke:#263238;stroke-miterlimit:10"></line><line x1="334.59" y1="145.94" x2="384.36" y2="145.94" style="fill:none;stroke:#263238;stroke-miterlimit:10"></line><line x1="281.92" y1="145.94" x2="329.76" y2="145.94" style="fill:none;stroke:#263238;stroke-miterlimit:10"></line><line x1="242.29" y1="145.94" x2="277.57" y2="145.94" style="fill:none;stroke:#263238;stroke-miterlimit:10"></line><line x1="228.76" y1="145.94" x2="237.94" y2="145.94" style="fill:none;stroke:#263238;stroke-miterlimit:10"></line><line x1="414.32" y1="157.06" x2="422.53" y2="157.06" style="fill:none;stroke:#263238;stroke-miterlimit:10"></line><line x1="332.65" y1="157.06" x2="408.04" y2="157.06" style="fill:none;stroke:#263238;stroke-miterlimit:10"></line><line x1="275.15" y1="157.06" x2="327.82" y2="157.06" style="fill:none;stroke:#263238;stroke-miterlimit:10"></line><line x1="226.35" y1="157.06" x2="269.84" y2="157.06" style="fill:none;stroke:#263238;stroke-miterlimit:10"></line><line x1="403.69" y1="168.17" x2="420.12" y2="168.17" style="fill:none;stroke:#263238;stroke-miterlimit:10"></line><line x1="355.85" y1="168.17" x2="399.34" y2="168.17" style="fill:none;stroke:#263238;stroke-miterlimit:10"></line><line x1="341.35" y1="168.17" x2="351.02" y2="168.17" style="fill:none;stroke:#263238;stroke-miterlimit:10"></line><line x1="271.77" y1="168.17" x2="338.94" y2="168.17" style="fill:none;stroke:#263238;stroke-miterlimit:10"></line><line x1="223.93" y1="168.17" x2="267.9" y2="168.17" style="fill:none;stroke:#263238;stroke-miterlimit:10"></line><line x1="221.51" y1="179.28" x2="417.7" y2="179.28" style="fill:none;stroke:#263238;stroke-miterlimit:10"></line><line x1="405.14" y1="190.4" x2="415.29" y2="190.4" style="fill:none;stroke:#263238;stroke-miterlimit:10"></line><line x1="360.68" y1="190.4" x2="398.86" y2="190.4" style="fill:none;stroke:#263238;stroke-miterlimit:10"></line><line x1="296.9" y1="190.4" x2="353.92" y2="190.4" style="fill:none;stroke:#263238;stroke-miterlimit:10"></line><line x1="282.88" y1="190.4" x2="292.55" y2="190.4" style="fill:none;stroke:#263238;stroke-miterlimit:10"></line><line x1="238.43" y1="190.4" x2="277.57" y2="190.4" style="fill:none;stroke:#263238;stroke-miterlimit:10"></line><line x1="219.1" y1="190.4" x2="232.63" y2="190.4" style="fill:none;stroke:#263238;stroke-miterlimit:10"></line><line x1="363.58" y1="201.51" x2="412.87" y2="201.51" style="fill:none;stroke:#263238;stroke-miterlimit:10"></line><line x1="311.39" y1="201.51" x2="357.3" y2="201.51" style="fill:none;stroke:#263238;stroke-miterlimit:10"></line><line x1="271.29" y1="201.51" x2="306.56" y2="201.51" style="fill:none;stroke:#263238;stroke-miterlimit:10"></line><line x1="216.68" y1="201.51" x2="266.45" y2="201.51" style="fill:none;stroke:#263238;stroke-miterlimit:10"></line><line x1="394.99" y1="212.63" x2="410.45" y2="212.63" style="fill:none;stroke:#263238;stroke-miterlimit:10"></line><line x1="343.77" y1="212.63" x2="389.67" y2="212.63" style="fill:none;stroke:#263238;stroke-miterlimit:10"></line><line x1="310.91" y1="212.63" x2="340.39" y2="212.63" style="fill:none;stroke:#263238;stroke-miterlimit:10"></line><line x1="284.33" y1="212.63" x2="306.08" y2="212.63" style="fill:none;stroke:#263238;stroke-miterlimit:10"></line><line x1="259.21" y1="212.63" x2="280.47" y2="212.63" style="fill:none;stroke:#263238;stroke-miterlimit:10"></line><line x1="227.31" y1="212.63" x2="253.89" y2="212.63" style="fill:none;stroke:#263238;stroke-miterlimit:10"></line><line x1="214.27" y1="212.63" x2="222.96" y2="212.63" style="fill:none;stroke:#263238;stroke-miterlimit:10"></line><line x1="381.94" y1="223.74" x2="408.04" y2="223.74" style="fill:none;stroke:#263238;stroke-miterlimit:10"></line><line x1="336.04" y1="223.74" x2="376.14" y2="223.74" style="fill:none;stroke:#263238;stroke-miterlimit:10"></line><line x1="293.03" y1="223.74" x2="330.24" y2="223.74" style="fill:none;stroke:#263238;stroke-miterlimit:10"></line><line x1="242.78" y1="223.74" x2="287.23" y2="223.74" style="fill:none;stroke:#263238;stroke-miterlimit:10"></line><line x1="211.85" y1="223.74" x2="237.94" y2="223.74" style="fill:none;stroke:#263238;stroke-miterlimit:10"></line><line x1="380.49" y1="234.85" x2="405.62" y2="234.85" style="fill:none;stroke:#263238;stroke-miterlimit:10"></line><line x1="337" y1="234.85" x2="375.66" y2="234.85" style="fill:none;stroke:#263238;stroke-miterlimit:10"></line><line x1="292.06" y1="234.85" x2="330.24" y2="234.85" style="fill:none;stroke:#263238;stroke-miterlimit:10"></line><line x1="261.14" y1="234.85" x2="287.72" y2="234.85" style="fill:none;stroke:#263238;stroke-miterlimit:10"></line><line x1="229.25" y1="234.85" x2="256.31" y2="234.85" style="fill:none;stroke:#263238;stroke-miterlimit:10"></line><line x1="209.43" y1="234.85" x2="226.35" y2="234.85" style="fill:none;stroke:#263238;stroke-miterlimit:10"></line><line x1="388.71" y1="245.97" x2="403.2" y2="245.97" style="fill:none;stroke:#263238;stroke-miterlimit:10"></line><line x1="339.42" y1="245.97" x2="383.88" y2="245.97" style="fill:none;stroke:#263238;stroke-miterlimit:10"></line><line x1="300.28" y1="245.97" x2="333.62" y2="245.97" style="fill:none;stroke:#263238;stroke-miterlimit:10"></line><line x1="274.67" y1="245.97" x2="294.96" y2="245.97" style="fill:none;stroke:#263238;stroke-miterlimit:10"></line><line x1="233.6" y1="245.97" x2="267.42" y2="245.97" style="fill:none;stroke:#263238;stroke-miterlimit:10"></line><line x1="207.02" y1="245.97" x2="230.21" y2="245.97" style="fill:none;stroke:#263238;stroke-miterlimit:10"></line><path d="M358.31,254.2v.07a23.76,23.76,0,0,0-21.13,18.14l-18.39,76.25H96.38l18.38-76.25a23.79,23.79,0,0,1,22.68-18.21Z" style="fill:#fff;stroke:#263238;stroke-linecap:round;stroke-linejoin:round"></path><path d="M392.48,278.67H335.67l1.51-6.26a23.83,23.83,0,0,1,21.13-18.14c.65-.05,1.3-.08,1.95-.08,9,0,18.25,4.93,21.74,14.07C384.46,274.72,388.33,277.89,392.48,278.67Z" style="fill:#263238;stroke:#263238;stroke-linecap:round;stroke-linejoin:round"></path><path d="M322.92,272.15c0,.74-1.81,1.29-1.94,2s1.34,1.89,1.08,2.56-2.15.55-2.52,1.18.63,2.21.16,2.77-2.21-.14-2.76.35,0,2.29-.6,2.71-2.12-.7-2.76-.36-.54,2.23-1.22,2.5-1.92-1.14-2.62-.94-1,2.07-1.7,2.2-1.66-1.5-2.39-1.43-1.35,1.84-2.08,1.84-1.38-1.78-2.09-1.84-1.68,1.56-2.38,1.43-1-2-1.71-2.2-1.95,1.21-2.61.94-.6-2.16-1.22-2.5-2.18.77-2.76.36-.08-2.24-.61-2.71-2.3.19-2.76-.35.53-2.16.17-2.78-2.26-.5-2.52-1.17,1.21-1.85,1.07-2.56-1.93-1.25-1.93-2,1.8-1.28,1.93-2-1.33-1.88-1.07-2.56,2.14-.54,2.52-1.17-.64-2.21-.17-2.77,2.22.14,2.76-.35,0-2.29.61-2.71,2.11.7,2.76.35.54-2.22,1.22-2.5,1.91,1.15,2.61.95,1-2.07,1.71-2.2,1.65,1.5,2.38,1.43,1.35-1.85,2.09-1.85,1.37,1.78,2.08,1.85,1.69-1.57,2.39-1.43,1,2,1.7,2.2,2-1.21,2.62-.95.59,2.17,1.22,2.5,2.17-.76,2.76-.35.08,2.23.6,2.71,2.31-.2,2.76.35-.53,2.16-.16,2.77,2.26.51,2.52,1.18-1.22,1.84-1.08,2.55S322.92,271.42,322.92,272.15Z" style="fill:#B08B57"></path><ellipse cx="303.57" cy="272.15" rx="14.69" ry="11.52" style="fill:#fff"></ellipse><ellipse cx="303.57" cy="272.15" rx="11.89" ry="9.33" style="fill:#B08B57"></ellipse><line x1="311.94" y1="328.29" x2="215.36" y2="328.29" style="fill:none;stroke:#263238;stroke-linecap:round;stroke-linejoin:round"></line><line x1="184.64" y1="328.29" x2="115.44" y2="328.29" style="fill:none;stroke:#263238;stroke-linecap:round;stroke-linejoin:round"></line><path d="M236.31,326.25s18.23-20.19,23.43-40-7.59-9.07-12.7,12.9-5.11,27.6,0,23.51a53,53,0,0,0,10.49-12.23c.72-1.14,1.32-2.2,1.78-3.1,2-4.09-4.6-1.53-6.14,6.64s7.67-3.57,10.22-7.66,7.67-6.13,3.58,4.6-10.22,8.68-4.6,1.53,11.76-22,12.27-13.8S273.1,316,269,318.58s7.66-11.75,11.24-10.73,5.11,5.11,1.53,8.18-3.58-7.16,23.51-6.14" style="fill:none;stroke:#263238;stroke-linecap:round;stroke-linejoin:round"></path></g><g id="freepik--Character--inject-79"><path d="M300.86,298.05l15,12a.93.93,0,0,1-.82,1.62l-19-4.93Z" style="fill:#fff;stroke:#263238;stroke-linecap:round;stroke-linejoin:round"></path><path d="M298.43,293.38l-87.64-51.89L201,258.15l90.74,49.15a3.56,3.56,0,0,0,.72.39c3,1.26,6.79-.92,8.44-4.88S301.44,294.63,298.43,293.38Z" style="fill:#8c8c8c;stroke:#263238;stroke-linecap:round;stroke-linejoin:round"></path><path d="M213.1,252.12c-2.56,6.13-8.42,9.52-13.09,7.57a7.55,7.55,0,0,1-1.28-.7L108.9,208.93l-7.32-4.09-.9-.49.23-.55,10.3-24.66.44-1,1.19.72,10.26,6.25,86.18,52.42C214,239.44,215.66,246,213.1,252.12Z" style="fill:#fff;stroke:#263238;stroke-linecap:round;stroke-linejoin:round"></path><path d="M208.42,237l-85.32-51.9-10.26-6.25-1.19-.72-.44,1-10.3,24.66-.23.55.9.49,7.32,4.09,87.77,48.91c4.68,1.39,10.24-2,12.74-8C211.41,245,210.88,240,208.42,237Z" style="fill:#8c8c8c;stroke:#263238;stroke-linecap:round;stroke-linejoin:round"></path><path d="M108.9,208.93c5.33.22,11-3.92,13.78-10.52a17.51,17.51,0,0,0,.42-13.35l-10.26-6.25a11.48,11.48,0,0,0-1.63.33c-4.23,1.19-8.27,4.88-10.45,10.11s-2,10.71.15,14.55a8.41,8.41,0,0,0,.67,1" style="fill:#fff;stroke:#263238;stroke-linecap:round;stroke-linejoin:round"></path><path d="M116.9,193.82l66.64,43.37a2,2,0,0,1,.67,2.56h0a2,2,0,0,1-2.75.78L112.91,200Z" style="fill:#fff;stroke:#263238;stroke-linecap:round;stroke-linejoin:round"></path><path d="M116.17,195.4c-3,7.25-10,11.26-15.49,8.95S93.14,194.29,96.16,187s10-11.26,15.49-8.95S119.2,188.15,116.17,195.4Z" style="fill:#8c8c8c;stroke:#263238;stroke-linecap:round;stroke-linejoin:round"></path><path d="M114,194.5c-2.37,5.68-7.81,8.83-12.14,7S82.64,185.43,85,179.75s21.12-.64,25.45,1.17S116.39,188.81,114,194.5Z" style="fill:#fff;stroke:#263238;stroke-linecap:round;stroke-linejoin:round"></path><path d="M254.33,288.78l5.41-2.52a5.22,5.22,0,0,1,3.42,1.08c1.62,1.26,4.68,3.24,4.68,3.24s6.12.36,6.3,1.26-3.6,2-4.14,2h-4s5.58,2.89,6.12,3.25,8.29,2.7,7.21,3.42-8.29.54-9.91.9a31,31,0,0,1-4.86.36l-6.12-5.58-4.33-4.69S252.71,289.86,254.33,288.78Z" style="fill:#fff;stroke:#263238;stroke-linecap:round;stroke-linejoin:round"></path><path d="M118.54,224.13s-.36-4.87-.36-7.21-1.26-6.84-1.8-7.2-6.12-2.52-7.74-4-3.61.54-2.89,1.8,4.87,3.6,4.87,3.6l-1.08,1.62-4-3.42s-4.14-6.48-5.22-5.94-.72,1.44,0,2.7.36,9.36,2.34,11,7.93,3.61,7.93,3.61l.54,4.5s5.58.36,6.3.54S118.54,224.13,118.54,224.13Z" style="fill:#fff;stroke:#263238;stroke-linecap:round;stroke-linejoin:round"></path><path d="M106.65,231l.72-4.86s-.18-1.62,4-2.34a15.56,15.56,0,0,1,7.2.36,1.42,1.42,0,0,1,.9,1.26,31,31,0,0,1-.54,5.22S112.42,228.09,106.65,231Z" style="fill:#fff;stroke:#263238;stroke-linecap:round;stroke-linejoin:round"></path><path d="M178.89,470V483s3,1.51,11.75,1.51a67.83,67.83,0,0,0,22.89-4.52c4.21-1.8,5.72-5.72,4.21-6.32s-9-.91-10.54-2.11-7.83-5.12-7.83-5.12S184.31,470.91,178.89,470Z" style="fill:#B08B57;stroke:#263238;stroke-linecap:round;stroke-linejoin:round"></path><path d="M218.29,474.81a67.7,67.7,0,0,1-20,5.84c-10.4,1.34-16.81.19-19.42-.49V483s3,1.51,11.75,1.51a67.83,67.83,0,0,0,22.89-4.52C216.55,478.65,218.17,476.27,218.29,474.81Z" style="fill:#fff;stroke:#263238;stroke-linecap:round;stroke-linejoin:round"></path><path d="M183.41,345.63l1.51,4.22s6.32,12,10.84,20.78,9.33,27.4,10.84,29.21,1.2,4.21.3,6.92-8.13,50-8.13,51.2-.6,1.2.3,2.71,1.21,6.32,1.21,6.32a13.48,13.48,0,0,1-7.23,3.62c-4.82.9-14.16.9-14.16.9s-1.2-5.72-.9-6.62,1.21-6.63,1.21-6.63,3-14.76,2.4-22.28.91-24.4,1.51-26.2a27.83,27.83,0,0,0,.6-6l-1.8-3.31V398s-14.46-14.76-20.18-20.48-11.44-12.65-11.44-12.65-6.63,29.52-8.44,35.84-2.71,9-3.91,10.84-13.55,18.07-18.07,24.7-11.44,18.37-11.44,18.37a37.15,37.15,0,0,0,.3,5.12c.3,1.2-3,5.72-3,5.72l-1.21,1.2s-7.23-7.23-9.94-7.83-8.43.3-8.43.3,3.62-9.93,4.52-12,9.33-23.49,11.74-27.71,4.22-12.65,8.44-16,9-7.23,9-7.23l-.6-33.72-.6-9.34a30.49,30.49,0,0,1-.91-7.23v-6s27.41,6.32,41,5.72,21.68-4.21,21.68-4.21Z" style="fill:#263238;stroke:#263238;stroke-linecap:round;stroke-linejoin:round"></path><path d="M190.94,251.5s-15.67-6.84-23.95-6.84-12.79.18-21.62.54-14,3.06-14,3.06l-13,4.32L119.44,229a20.2,20.2,0,0,0-8.1-.54,11.13,11.13,0,0,0-6,3.24s-4.86,32.06-4.68,34.94,4,3.42,4,3.42l29.36-.54-2.16,32.78-22,38.18s.18,5.94,18.19,11.89,40.16,4,47,2.16,17.79-9.9,18.69-11.16,0-7.75,0-10.45-4.5-28.28-3.78-29.54,4.68-18.19,4.68-18.19,36.56,23.77,38.72,23.41,24.13-11.16,24.68-11.52,2-2.34-.18-5.59a9.07,9.07,0,0,0-7-3.78c-1.08,0-15.85,1.26-15.85,1.26S216.51,272.57,216,271.67s-3.42-8.46-4.68-10.44S190.94,251.5,190.94,251.5Z" style="fill:#B08B57;stroke:#263238;stroke-linecap:round;stroke-linejoin:round"></path><path d="M235.06,289s5.92,3.37,7.1,5.44" style="fill:#B08B57;stroke:#263238;stroke-linecap:round;stroke-linejoin:round"></path><path d="M211.29,261.23s-5.41.43-11,6.33" style="fill:#B08B57;stroke:#263238;stroke-linecap:round;stroke-linejoin:round"></path><path d="M199.1,263.73a12.4,12.4,0,0,0-6.19,8.85" style="fill:#B08B57;stroke:#263238;stroke-linecap:round;stroke-linejoin:round"></path><polyline points="134.03 269.51 133.49 256 134.03 269.51" style="fill:none;stroke:#263238;stroke-linecap:round;stroke-linejoin:round"></polyline><polyline points="186.19 290.97 194.72 285.18 180.85 289.5" style="fill:none;stroke:#263238;stroke-linecap:round;stroke-linejoin:round"></polyline><line x1="180.13" y1="295.09" x2="183.08" y2="293.09" style="fill:none;stroke:#263238;stroke-linecap:round;stroke-linejoin:round"></line><path d="M179.29,253.55a28,28,0,0,0-9.06,5.34c-7,6.3-10.81,5.76-10.81,5.76" style="fill:none;stroke:#263238;stroke-linecap:round;stroke-linejoin:round"></path><path d="M186.26,251.86a23.94,23.94,0,0,0-3.18.55" style="fill:none;stroke:#263238;stroke-linecap:round;stroke-linejoin:round"></path><path d="M169.15,256.36s-5.77,5.41-11.89,7.93" style="fill:none;stroke:#263238;stroke-linecap:round;stroke-linejoin:round"></path><path d="M105.72,255.84a4.37,4.37,0,0,0-1,2.51" style="fill:none;stroke:#263238;stroke-linecap:round;stroke-linejoin:round"></path><path d="M118.36,252.58l-2.52.18s-3.24-1.44-4.86-1.26a7.33,7.33,0,0,0-3,1.87" style="fill:none;stroke:#263238;stroke-linecap:round;stroke-linejoin:round"></path><path d="M107.37,251.86s-3.24,1.26-3.78,4.14" style="fill:none;stroke:#263238;stroke-linecap:round;stroke-linejoin:round"></path><path d="M190,303.37s-2.55,17.3-3.69,22.64-2.67,18.49-2.67,18.49a27.34,27.34,0,0,1,5.91-1.52c3-.38,4.19.38,4.19.38s2.29-5.53,0-15.07S190,303.37,190,303.37Z" style="fill:#B08B57;stroke:#263238;stroke-linecap:round;stroke-linejoin:round"></path><path d="M104.51,466.69s1.21,5.72,2.41,6.33,6.93,1.8,7.53,3.31-5.42,4.21-9.34,4.82-10.84-.91-11.74-1.51-3-3.61-5.72-4.52-6-2.1-5.42-5.72,3.91-10.24,3.91-10.24a19.56,19.56,0,0,1,12.35.3C105.11,461.87,104.51,466.69,104.51,466.69Z" style="fill:#B08B57;stroke:#263238;stroke-linecap:round;stroke-linejoin:round"></path><path d="M105.11,481.15c3.92-.61,9.94-3.32,9.34-4.82a1.25,1.25,0,0,0-.26-.37c-2.93,1-6.53,1.55-9.84-.28-4.06-2.26-5.42-7.23-10.84-9-3.15-1.05-7.37-.87-10.35-.55a20.43,20.43,0,0,0-.93,3.31c-.61,3.62,2.71,4.82,5.42,5.72s4.82,3.92,5.72,4.52S101.2,481.75,105.11,481.15Z" style="fill:#fff;stroke:#263238;stroke-linecap:round;stroke-linejoin:round"></path><path d="M103.31,479c-3.32-1.51-6.33-5.42-11.15-8.43-4.4-2.76-9,.27-9.81.81.69,2.1,3.17,3,5.3,3.7,2.71.91,4.82,3.92,5.72,4.52s7.83,2.11,11.74,1.51a19.71,19.71,0,0,0,2.36-.54A39.12,39.12,0,0,1,103.31,479Z" style="fill:#263238;stroke:#263238;stroke-linecap:round;stroke-linejoin:round"></path><path d="M194,246.64l-5.4,3.78s-7-4.68-11.89-5.58-7.38-1.08-7.38-1.08l3.78-6.67a17.58,17.58,0,0,0,6.12-7.92c1.62-4.86,3.24-6.84,6.85-5s5,9,5,13.5S194,246.64,194,246.64Z" style="fill:#fff;stroke:#263238;stroke-linecap:round;stroke-linejoin:round"></path><path d="M197.06,213.5s3.06,4.5,3.42,6.13-1.26,4.86-1.26,4.86,3.61,5.22,3.79,6.48-2.17,3.6-2.17,3.6.54,5.23,1.27,6.49,1.44,3.06.54,4.68-2.17,2.7-6,3.24-6.84-1.26-7.56-5-.72-11.89-1.26-13-3.06-3.6-4.32-1.62-.36,4,.54,5.76a5.74,5.74,0,0,0,2.52,2.52l-4,2a10.73,10.73,0,0,1-7.56.36,7.15,7.15,0,0,1-4-3.79c-.18-.54-2-5-2.52-5.94s-4.33-6.3-4.51-12.61,7.39-13.5,17.11-15.48,14.23,2.34,16.39,2.52,0-1.8,1.8-.54S201.56,212.42,197.06,213.5Z" style="fill:#fff;stroke:#263238;stroke-linecap:round;stroke-linejoin:round"></path><path d="M200.84,234.57s.2-.2.48-.51c-.73.1-2.92.4-4.26.69-1.62.36-2.34,5.23-3.78,4s-2.16-11.89-2.52-12.43S192,224,192,224s2.52-3.42,2.52-4.87-2.52-3.06-1.62-3.42,4.14-2.16,4.14-2.16c4.5-1.08,4.14-8.1,2.34-9.36s.36.72-1.8.54-6.66-4.51-16.39-2.52-17.29,9.18-17.11,15.48,4,11.71,4.51,12.61,2.34,5.4,2.52,5.94a7.15,7.15,0,0,0,4,3.79,10.73,10.73,0,0,0,7.56-.36l4-2a5.74,5.74,0,0,1-2.52-2.52c-.9-1.8-1.81-3.78-.54-5.76s3.78.54,4.32,1.62.54,9.19,1.26,13,3.78,5.58,7.56,5,5-1.62,6-3.24.18-3.42-.54-4.68S200.84,234.57,200.84,234.57Z" style="fill:#263238;stroke:#263238;stroke-linecap:round;stroke-linejoin:round"></path><path d="M199.94,221.25a2.59,2.59,0,0,0-2.34,1.44" style="fill:none;stroke:#263238;stroke-linecap:round;stroke-linejoin:round"></path><ellipse cx="198.5" cy="225.39" rx="0.72" ry="1.98" style="fill:#263238"></ellipse><path d="M201.2,239.08s-3.06,1.08-4.32-1.09" style="fill:none;stroke:#fff;stroke-linecap:round;stroke-linejoin:round"></path><path d="M167,244.66c8.28,0,23.95,6.84,23.95,6.84l.6.25a5.44,5.44,0,0,0-1-2.23c-.54-.36-3.42-4.5-8.83-6.66a30.9,30.9,0,0,0-11.16-2.34c-1.27,0-4.9,3.34-5.76,4.14Z" style="fill:#B08B57;stroke:#263238;stroke-linecap:round;stroke-linejoin:round"></path></g></svg>